<?xml version="1.0" encoding="UTF-8"?>
<!DOCTYPE svg PUBLIC "-//W3C//DTD SVG 1.1//EN" "http://www.w3.org/Graphics/SVG/1.1/DTD/svg11.dtd">
<!-- Creator: CorelDRAW X6 -->
<svg xmlns="http://www.w3.org/2000/svg" xml:space="preserve" width="115mm" height="15mm" version="1.1" style="shape-rendering:geometricPrecision; text-rendering:geometricPrecision; image-rendering:optimizeQuality; fill-rule:evenodd; clip-rule:evenodd"
viewBox="0 0 11500 1500"
 xmlns:xlink="http://www.w3.org/1999/xlink">
 <defs>
  <style type="text/css">
   <![CDATA[
    .fil0 {fill:#FEFEFE;fill-rule:nonzero}
   ]]>
  </style>
 </defs>
 <g id="Слой_x0020_1">
  <metadata id="CorelCorpID_0Corel-Layer"/>
  <path class="fil0" d="M1017 1248c-56,0 -105,-7 -148,-20 -43,-13 -87,-33 -131,-61l58 -159c40,24 76,41 108,51 32,10 68,15 108,15 40,0 72,-9 95,-27 23,-18 35,-43 35,-77 0,-29 -9,-52 -26,-70 -17,-18 -42,-29 -75,-33l-47 -6c-73,-9 -132,-35 -177,-77 -45,-42 -68,-100 -68,-173 0,-85 27,-152 81,-201 54,-49 133,-73 236,-73 52,0 99,7 141,20 42,13 77,31 105,52l-56 149c-59,-31 -120,-47 -184,-47 -46,0 -80,8 -102,25 -21,16 -32,37 -32,62 0,47 27,74 81,81l50 6c83,9 148,38 193,86 45,48 68,111 68,191 0,93 -27,165 -81,213 -54,49 -132,73 -233,73l1 0zm727 0c-60,0 -113,-12 -159,-36 -46,-24 -82,-58 -108,-101 -26,-43 -39,-93 -39,-148l0 -611 202 0 0 615c0,31 9,56 28,75 19,19 44,28 75,28 30,0 55,-10 74,-29 19,-19 29,-44 29,-74l0 -615 202 0 -4 611c0,56 -13,105 -38,148 -26,43 -61,77 -107,101 -45,24 -98,36 -157,36l2 0zm772 3c-45,0 -89,-7 -129,-22 -41,-15 -76,-37 -105,-66 -34,-34 -59,-77 -75,-129 -16,-52 -25,-132 -25,-240 0,-108 8,-188 25,-240 16,-52 41,-95 75,-129 29,-29 65,-52 105,-66 41,-15 84,-22 129,-22 45,0 89,7 129,22 41,15 76,37 105,66 34,34 59,77 75,129 16,52 25,132 25,240 0,108 -8,188 -25,240 -16,52 -41,95 -75,129 -29,29 -65,52 -105,66 -41,15 -84,22 -129,22zm0 -178c35,0 64,-11 87,-33 23,-22 35,-52 38,-90 4,-53 6,-105 6,-155 0,-50 -2,-102 -6,-155 -3,-38 -15,-68 -38,-90 -23,-22 -52,-33 -87,-33 -35,0 -64,11 -87,33 -23,22 -35,52 -38,90 -4,53 -6,105 -6,155 0,50 2,102 6,155 3,38 15,68 38,90 23,22 52,33 87,33zm480 -721l164 0 165 312c3,5 6,8 11,8 5,0 9,-3 11,-8l165 -312 164 0 0 884 -189 0 0 -366 18 -111 0 -3c0,-3 -1,-6 -3,-8 -2,-2 -4,-3 -7,-3 -4,0 -8,2 -10,6l-121 196 -66 0 -111 -196c-2,-4 -5,-6 -10,-6 -3,0 -6,1 -8,4 -2,3 -3,6 -2,9l18 111 0 366 -189 0 0 -884 0 1zm833 719l116 0 0 -555 -116 0 0 -164 433 0 0 164 -116 0 0 555 116 0 0 164 -433 0 0 -164z"/>
  <path class="fil0" d="M4755 800l53 0 0 398 159 0 0 50 -212 0 0 -448zm289 0l258 0 0 50 -208 0 0 149 197 0 0 50 -197 0 0 149 208 0 0 50 -258 0 0 -448zm558 328l-156 0 -33 120 -54 0 113 -401 -59 0 0 -47 150 0 127 448 -54 0 -33 -120 -1 0zm-13 -47l-55 -200 -5 -34c0,-3 -1,-4 -4,-4 -2,0 -4,1 -4,4l-6 34 -55 200 129 0zm171 -281l146 0c41,0 74,11 97,33 23,22 35,54 35,94 0,29 -7,54 -22,74 -15,20 -35,34 -61,41 -3,1 -5,3 -5,5 0,1 1,4 3,7l19 31 59 162 -57 0 -72 -199 -88 0 0 199 -51 0 0 -448 -3 1zm146 202c25,0 44,-7 58,-20 14,-13 21,-31 21,-55 0,-26 -7,-47 -21,-61 -14,-14 -33,-21 -58,-21l-95 0 0 157 95 0zm214 -202l43 0 187 350c1,2 3,3 4,3 1,0 2,-1 4,-2 1,-1 1,-3 1,-4l-7 -43 0 -304 51 0 0 448 -51 0 -178 -331c-2,-3 -4,-4 -6,-4 -1,0 -2,1 -3,2 -1,1 -1,3 -1,4l6 42 0 287 -51 0 0 -448 1 0z"/>
  <path class="fil0" d="M6863 352l329 0c96,0 170,23 223,69 53,46 79,111 79,196 0,56 -14,106 -43,148 -29,42 -69,74 -121,95 -8,3 -11,7 -11,14 0,3 1,8 4,13l44 63 105 287 -201 0 -130 -353 -76 0 0 353 -202 0 0 -884 0 -1zm337 366c36,0 64,-9 85,-27 20,-18 30,-42 30,-74 0,-32 -10,-57 -30,-74 -20,-18 -48,-27 -85,-27l-136 0 0 202 136 0zm713 530c-60,0 -113,-12 -159,-36 -46,-24 -82,-58 -108,-101 -26,-43 -39,-93 -39,-148l0 -611 202 0 0 615c0,31 9,56 28,75 19,19 44,28 75,28 30,0 55,-10 74,-29 19,-19 29,-44 29,-74l0 -615 202 0 -4 611c0,56 -13,105 -38,148 -26,43 -61,77 -107,101 -45,24 -98,36 -157,36l2 0zm692 0c-56,0 -105,-7 -148,-20 -43,-13 -87,-33 -131,-61l58 -159c40,24 76,41 108,51 32,10 68,15 108,15 40,0 72,-9 95,-27 23,-18 35,-43 35,-77 0,-29 -9,-52 -26,-70 -17,-18 -42,-29 -75,-33l-47 -6c-73,-9 -132,-35 -177,-77 -45,-42 -68,-100 -68,-173 0,-85 27,-152 81,-201 54,-49 133,-73 236,-73 52,0 99,7 141,20 42,13 77,31 105,52l-56 149c-59,-31 -120,-47 -184,-47 -46,0 -80,8 -102,25 -21,16 -32,37 -32,62 0,47 27,74 81,81l50 6c83,9 148,38 193,86 45,48 68,111 68,191 0,93 -27,165 -81,213 -54,49 -132,73 -233,73l1 0zm656 0c-56,0 -105,-7 -148,-20 -43,-13 -87,-33 -131,-61l58 -159c40,24 76,41 108,51 32,10 68,15 108,15 40,0 72,-9 95,-27 23,-18 35,-43 35,-77 0,-29 -9,-52 -26,-70 -17,-18 -42,-29 -75,-33l-47 -6c-73,-9 -132,-35 -177,-77 -45,-42 -68,-100 -68,-173 0,-85 27,-152 81,-201 54,-49 133,-73 236,-73 52,0 99,7 141,20 42,13 77,31 105,52l-56 149c-59,-31 -120,-47 -184,-47 -46,0 -80,8 -102,25 -21,16 -32,37 -32,62 0,47 27,74 81,81l50 6c83,9 148,38 193,86 45,48 68,111 68,191 0,93 -27,165 -81,213 -54,49 -132,73 -233,73l1 0zm409 -177l116 0 0 -555 -116 0 0 -164 433 0 0 164 -116 0 0 555 116 0 0 164 -433 0 0 -164zm997 -40l-220 0 -43 204 -201 0 174 -719 -92 0 0 -164 410 0 215 884 -201 0 -43 -204 1 -1zm-35 -164l-54 -259 -9 -80c0,-3 -1,-6 -4,-8 -3,-2 -5,-3 -8,-3 -6,0 -10,4 -11,11l-9 80 -54 259 149 0z"/>
 </g>
</svg>
